<svg xmlns="http://www.w3.org/2000/svg" viewBox="0 0 28 32"><path d="M 28 32 s -4.714 -1.855 -8.527 -3.34 H 3.437 C 1.54 28.66 0 27.026 0 25.013 V 3.644 C 0 1.633 1.54 0 3.437 0 h 21.125 c 1.898 0 3.437 1.632 3.437 3.645 v 18.404 H 28 V 32 Z m -4.139 -11.982 a 0.88 0.88 0 0 0 -1.292 -0.105 c -0.03 0.026 -3.015 2.681 -8.57 2.681 c -5.486 0 -8.517 -2.636 -8.571 -2.684 a 0.88 0.88 0 0 0 -1.29 0.107 a 1.01 1.01 0 0 0 -0.219 0.708 a 0.992 0.992 0 0 0 0.318 0.664 c 0.142 0.128 3.537 3.15 9.762 3.15 c 6.226 0 9.621 -3.022 9.763 -3.15 a 0.992 0.992 0 0 0 0.317 -0.664 a 1.01 1.01 0 0 0 -0.218 -0.707 Z"></path></svg>